<svg version="1.2" xmlns="http://www.w3.org/2000/svg" viewBox="0 0 173 98" width="173" height="98">
	<title>Group 856-svg</title>
	<style>
		.s0 { fill: #bf9062 } 
		.s1 { fill: #000000 } 
	</style>
	<g id="Group_856">
		<path id="Path_303" fill-rule="evenodd" class="s0" d="m92.8 36.1v-21.9h-0.1l-4 17.4h-2.8l-4-17.4v21.9h-4.5v-31.5h6.2l3.7 16.9h0.1l3.7-16.9h6.4v31.5zm14.7-27.1v8.9h6.9v4.4h-6.9v9.4h8.6v4.4h-13.4v-31.5h13.4v4.4zm19.2 13.8h-2.2v13.3h-4.8v-31.5h6.9c5.1 0 7.9 2.8 7.9 8v2.2c0 3.3-1.2 5.7-3.4 6.9l4.4 14.4h-5zm-2.2-4.5h1.9c2.3 0 3.3-1.2 3.3-3.8v-1.6c0-2.7-1-3.9-3.3-3.9h-1.9zm28.6-6.6v2.8l-4.6 0.2v-2.5c0-2.6-0.9-3.7-2.7-3.7-1.7 0-2.7 1.1-2.7 3.2v17.2c0 2 1 3.1 2.7 3.1 1.8 0 2.7-1.1 2.7-3.6v-3.5l4.6 0.2v3.8c0 4.8-2.7 7.6-7.4 7.6-4.6 0-7.3-2.8-7.3-7.6v-17.2c0-4.8 2.7-7.6 7.3-7.6 4.7 0 7.4 2.8 7.4 7.6zm14.5 24.3v-13.7h-5.7v13.7h-4.7v-31.4h4.7v13.2h5.7v-13.2h4.7v31.4z"/>
		<path id="Path_305" fill-rule="evenodd" class="s1" d="m71.6 95.9q-0.8 0-0.3-1.1 0.4-1.2 0.8-2.1 0.3-0.5 0.4-1.1 0.2-0.5 0.3-1.1 0-0.6 0.1-1.2 0-0.6 0-1.2 0-0.7-0.1-1.5-0.1-0.7-0.2-1.4-0.1-0.8-0.3-1.5-0.2-0.7-0.4-1.4-0.3-0.9-0.7-1.6-0.4-0.8-0.9-1.5-0.5-0.8-1-1.4-0.6-0.6-1.3-1.2-1-0.9-2-1.7-1.1-0.8-2.2-1.6-1.1-0.7-2.3-1.3-1.2-0.6-2.4-1.2-1.2-0.5-2.5-1-1.3-0.5-2.6-0.9-1.3-0.5-2.6-0.8-1.3-0.4-2.6-0.7-5.4-1.3-10.7-2.3-0.8 1-1.6 2.1-0.8 1-1.6 2-0.9 1-1.8 2-0.9 0.9-1.9 1.9-0.8 0.8-1.7 1.6-0.9 0.7-1.9 1.4-1 0.7-2 1.3-1.1 0.6-2.1 1.1-0.6 0.2-1.1 0.5-0.6 0.2-1.1 0.4-0.6 0.2-1.2 0.4-0.5 0.1-1.1 0.3-0.5 0.1-1 0.2-0.5 0.1-1 0.2-0.5 0.1-1 0.1-0.5 0-1 0-1 0.1-2-0.1-1-0.1-2-0.4-1-0.3-1.9-0.8-0.9-0.5-1.7-1.1-0.6-0.5-1.2-1.1-0.5-0.7-0.9-1.4-0.4-0.8-0.6-1.6-0.2-0.8-0.2-1.6 0.1-0.9 0.3-1.7 0.2-0.9 0.5-1.7 0.4-0.8 0.9-1.5 0.5-0.7 1.2-1.3 2.8-3 9.4-4.9 0.7-0.2 1.4-0.4 0.8-0.2 1.5-0.3 0.7-0.2 1.5-0.3 0.7-0.1 1.4-0.2 0.9 0 1.7-0.1 0.8-0.1 1.7-0.1 0.8-0.1 1.6-0.1 0.9 0 1.7 0 2.1 0 4.2 0.1 0.5 0 1 0.1 0.5 0 1 0.1 0.5 0.1 1 0.1 0.5 0.1 1 0.2 2.3-3.6 4.4-7.5 2.1-3.9 4.3-8.5-1.5 0-2.9 0-1.4-0.1-2.9-0.4-1.4-0.2-2.8-0.6-1.4-0.4-2.7-1-1.1-0.4-2.1-1-1-0.6-2-1.3-0.9-0.7-1.7-1.5-0.9-0.9-1.6-1.8-0.6-0.8-1.1-1.7-0.4-0.9-0.8-1.9-0.3-0.9-0.5-2-0.2-1-0.2-2 0.1-0.8 0.2-1.7 0.1-0.8 0.3-1.6 0.3-0.9 0.6-1.6 0.4-0.8 0.8-1.5 0.6-0.9 1.3-1.7 0.6-0.8 1.4-1.6 0.7-0.7 1.6-1.3 0.8-0.7 1.7-1.2 1.2-0.7 2.5-1.4 1.2-0.6 2.5-1.1 1.4-0.5 2.7-0.9 1.3-0.4 2.7-0.7 0.1 0 0.2-0.1 0.1 0 0.2 0 0.1 0 0.2 0 0.1-0.1 0.2-0.1h0.7q1.2 0 1.2 0.5 0 0.9-2.6 1.2-1 0.1-2 0.4-1 0.2-2 0.6-0.9 0.4-1.8 0.9-0.9 0.5-1.7 1.1-0.8 0.7-1.5 1.3-0.7 0.7-1.4 1.5-0.6 0.8-1.2 1.6-0.5 0.9-1 1.7-0.4 0.9-0.7 1.7-0.3 0.9-0.6 1.8-0.2 0.9-0.3 1.8-0.1 1-0.1 1.9 0 0.8 0.1 1.5 0.1 0.8 0.2 1.5 0.2 0.8 0.5 1.5 0.3 0.7 0.7 1.3 0.4 0.8 0.9 1.4 0.5 0.6 1.1 1.2 0.6 0.6 1.2 1 0.7 0.5 1.5 0.9 0.9 0.4 1.9 0.7 1.1 0.4 2.1 0.6 1.1 0.2 2.1 0.3 1.1 0.1 2.2 0 0.5 0 0.9 0 0.5 0 1 0 0.5-0.1 1-0.1 0.5 0 0.9-0.1 0.4-0.7 1.2-2.7 0.7-2 1.7-4.6 1-2.5 2-4.9 0.9-2.4 1.5-4l0.6-1.6q0.8-2 1.6-3.9 0.9-1.9 1.9-3.8 0.9-1.8 2-3.6 1.1-1.8 2.3-3.6 0.8-1.1 1.7-2.1 0.9-1.1 1.8-2 1-1 2.1-1.9 1-0.8 2.2-1.6 0.7-0.5 1.5-0.9 0.8-0.4 1.7-0.6 0.8-0.3 1.7-0.5 0.9-0.2 1.8-0.2 0.7 0 1.4 0.1 0.7 0.1 1.4 0.3 0.7 0.3 1.3 0.6 0.6 0.4 1.2 0.9 0.5 0.4 0.9 0.9 0.4 0.5 0.7 1 0.2 0.6 0.4 1.2 0.2 0.6 0.3 1.2 0 0.7 0 1v0.9q0 1.2-0.1 2.5-0.1 1.2-0.4 2.4-0.2 1.2-0.6 2.4-0.3 1.2-0.8 2.4-0.5 1.2-1.1 2.4-0.6 1.2-1.2 2.4-0.7 1.2-1.5 2.3-0.7 1.1-1.5 2.1-0.9 1.1-1.8 2.2-1 1-1.9 2-1 1-2 1.9-1.1 0.9-2.2 1.8-1.1 0.9-2.2 1.7-1.1 0.8-2.3 1.6-1.2 0.7-2.4 1.4-1.2 0.6-2.5 1.2-1.2 0.6-2.4 1.1-1.2 0.5-2.5 0.9-1.3 0.5-2.5 0.8-1.3 0.3-2.7 0.5-1.2 2.5-2.1 4.5-1 1.9-2.1 4.1-1.2 2.2-3.1 5.7-0.6 1.1-0.8 1.5l-0.9 1.4q1.1 0.3 2.3 0.6 1.1 0.3 2.2 0.6 1.1 0.4 2.3 0.8 1.1 0.3 2.2 0.7 1.2 0.5 2.4 1 1.2 0.5 2.4 1 1.2 0.5 2.4 1.1 1.2 0.5 2.4 1.1 1.1 0.6 2.2 1.2 1 0.6 2.1 1.3 1.1 0.7 2.1 1.4 1 0.7 2 1.4 1.1 0.8 2 1.7 1 0.9 1.8 1.9 0.8 1 1.5 2.1 0.7 1.1 1.2 2.3 0.5 1 0.8 1.9 0.4 1 0.6 1.9 0.3 1 0.4 2 0.1 1 0.2 2.1 0 0.4 0 0.9-0.1 0.5-0.1 0.9-0.1 0.5-0.3 0.9-0.1 0.5-0.4 0.9-0.1 0.3-0.4 0.7-0.2 0.3-0.5 0.6-0.2 0.3-0.5 0.5-0.4 0.3-0.7 0.5-0.2 0.1-0.4 0.2-0.2 0.1-0.4 0.2-0.2 0-0.4 0.1-0.2 0-0.4 0.1zm-20.8-54q1.5-0.3 2.9-0.8 1.4-0.4 2.8-1 1.3-0.5 2.7-1.2 1.3-0.7 2.6-1.5 1.3-0.8 2.6-1.7 1.2-0.9 2.5-1.9 1.2-1 2.3-2 1.1-1.1 2.2-2.3 1-1.1 2-2.3 0.9-1.2 1.8-2.5 0.9-1.2 1.6-2.6 0.8-1.3 1.4-2.7 0.7-1.3 1.1-2.7 0.5-1.3 0.8-2.7 0.3-1.5 0.5-2.9 0.2-1.4 0.2-2.9 0-0.3 0-0.6-0.1-0.3-0.2-0.6-0.1-0.3-0.2-0.6-0.2-0.2-0.4-0.5-0.2-0.2-0.4-0.4-0.2-0.2-0.5-0.3-0.3-0.1-0.6-0.1-0.3-0.1-0.6-0.1-1.9 0-4.9 2.1-0.9 0.8-1.8 1.6-0.9 0.8-1.8 1.7-0.8 0.9-1.6 1.8-0.8 0.9-1.5 1.9-1.2 1.6-2.3 3.2-1.1 1.7-2.1 3.4-1 1.7-2 3.4-0.9 1.7-1.8 3.5l-1.1 2.1-2.8 5.4q-1.7 3.3-3.4 6.8zm-37 36.3q0.5 0 1 0 0.5 0 1-0.1 0.5-0.1 1-0.1 0.5-0.1 0.9-0.3 0.6-0.1 1.2-0.3 0.5-0.1 1.1-0.3 0.5-0.2 1.1-0.4 0.5-0.3 1-0.5 7-3.4 12.8-11.7-0.5-0.1-1-0.2-0.5-0.1-1-0.2-0.5-0.1-1-0.1-0.4-0.1-0.9-0.1-2.1-0.2-4.2-0.2-0.6 0-1.2 0-0.6 0-1.1 0-0.6 0.1-1.2 0.1-0.5 0-1.1 0.1-0.6 0.1-1.2 0.2-0.6 0-1.1 0.2-0.6 0.1-1.2 0.2-0.5 0.1-1.1 0.3-1.1 0.3-2.2 0.6-1.1 0.4-2.2 0.9-1.1 0.5-2.1 1-1 0.6-1.9 1.3-3 2.3-3 4.7 0.1 0.5 0.2 1 0.2 0.6 0.4 1 0.3 0.5 0.7 0.8 0.3 0.4 0.8 0.7 0.6 0.4 1.3 0.7 0.7 0.3 1.4 0.4 0.7 0.2 1.4 0.3 0.7 0.1 1.4 0zm58.7-7.2q-0.7 0-1.4-0.1-0.6-0.1-1.2-0.4-0.6-0.2-1.1-0.7-0.6-0.4-1-0.9-0.3-0.6-0.6-1.2-0.3-0.6-0.5-1.3-0.2-0.6-0.3-1.3-0.1-0.7 0-1.4 0-1 0.1-1.9 0.1-1 0.3-2 0.3-1 0.6-1.9 0.3-1 0.7-1.9 0.4-0.9 0.9-1.8 0.4-0.9 1-1.8 0.5-0.9 1.1-1.7 0.6-0.8 1.2-1.6 0.6-0.7 1.2-1.4 0.7-0.7 1.4-1.4 0.7-0.6 1.4-1.2 0.7-0.6 1.5-1.1 0.6-0.4 1.3-0.8 0.7-0.3 1.5-0.6 0.7-0.2 1.4-0.4 0.8-0.1 1.6-0.1 0.6-0.1 1.3 0 0.6 0.2 1.2 0.4 0.7 0.3 1.2 0.7 0.5 0.4 0.9 0.9 0.4 0.6 0.7 1.2 0.3 0.7 0.4 1.3 0.2 0.7 0.3 1.4 0.1 0.6 0.1 1.3 0 1-0.2 2-0.1 1-0.3 2-0.2 1-0.5 1.9-0.3 1-0.8 1.9-0.3 0.6-0.6 1.2-0.3 0.7-0.6 1.3-0.4 0.6-0.8 1.2-0.4 0.6-0.8 1.2-0.4 0.6-0.9 1.3-0.5 0.6-1 1.2-0.5 0.6-1 1.2-0.6 0.6-1.2 1.2 0.3 0.5 0.7 0.9 0.4 0.4 0.9 0.7 0.6 0.3 1.1 0.4 0.6 0.2 1.2 0.1 0.5 0 1-0.1 0.6-0.1 1-0.3 0.5-0.3 0.9-0.6 0.5-0.3 0.8-0.6 0.5-0.5 1-0.9 0.4-0.5 0.8-1 0.4-0.5 0.8-1 0.4-0.6 0.7-1.1 0.4-0.6 0.7-1.2 0.4-0.6 0.7-1.2 0.3-0.5 0.6-1.1 0.3-0.6 0.6-1.2 0.2-0.5 0.4-1.1 0.4-0.9 0.9-1.8 0.5-1.1 1.1-2.1 0.6-1 1.2-2 0.6-1 1.3-1.9 0.7-1 1.5-1.9 0.6-0.7 1.2-1.3 0.6-0.7 1.4-1.2 0.7-0.6 1.4-1.1 0.8-0.5 1.6-1 0.7-0.4 1.5-0.7 0.8-0.3 1.6-0.6 0.8-0.2 1.7-0.3 0.8-0.1 1.7-0.1 0.9 0 1.9 0.2 0.9 0.1 1.8 0.5 0.9 0.3 1.8 0.8 0.8 0.4 1.6 1 0.2 0.2 0.5 0.5 0.2 0.2 0.3 0.5 0.2 0.2 0.3 0.6 0.1 0.3 0.1 0.6 0 1.2-1 1.2-0.8 0-1.1-1.1-1.2-3-3.7-3-0.7 0-1.3 0.2-0.6 0.1-1.2 0.3-0.6 0.3-1.2 0.6-0.5 0.3-1 0.7-0.7 0.4-1.4 1-0.6 0.5-1.3 1-0.6 0.6-1.2 1.2-0.5 0.6-1.1 1.2-0.5 0.6-1 1.2-0.5 0.6-1 1.3-0.5 0.6-0.9 1.3-0.5 0.6-0.9 1.3-0.5 0.7-0.9 1.4-0.4 0.7-0.8 1.4-0.3 0.7-0.7 1.4-0.3 0.7-0.7 1.5-0.2 0.5-0.4 1.1-0.2 0.6-0.4 1.2-0.1 0.7-0.2 1.3-0.1 0.6-0.2 1.2 0 0.3 0.1 0.7 0 0.3 0.1 0.6 0.1 0.3 0.2 0.6 0.1 0.2 0.3 0.5 0.2 0.3 0.4 0.5 0.2 0.2 0.5 0.3 0.3 0.1 0.6 0.2 0.3 0 0.6 0 0.5 0 1.1-0.2 0.5-0.1 1-0.3 0.5-0.3 1-0.6 0.5-0.3 0.9-0.7 0.5-0.5 1.1-1 0.5-0.6 1-1.1 0.5-0.6 1-1.2 0.5-0.5 0.9-1.2 0.5-0.6 0.9-1.2 0.5-0.7 0.9-1.4 0.4-0.6 0.8-1.3 0.4-0.7 0.8-1.4 0.3-0.6 0.5-1.1 0.3-0.6 0.6-1.1 0.2-0.6 0.5-1.2 0.2-0.6 0.4-1.1 0.1-0.4 0.2-0.7 0.1-0.4 0.3-0.7 0.2-0.3 0.5-0.5 0.2-0.3 0.6-0.5 0.2-0.1 0.4-0.2 0.3-0.1 0.5-0.1 0.3-0.1 0.5-0.1 0.3 0 0.5 0 0.3 0 0.5-0.1 0.2 0 0.4 0 0.2-0.1 0.4-0.2 0.2-0.1 0.4-0.2 0.1 0.4 0.1 0.9 0.1 0.4 0.2 0.9 0 0.5 0.1 0.9 0 0.5 0 0.9 0.2 1.9 0.2 3.8 0 1.6-0.2 3.2-0.1 1.6-0.3 3.2-0.2 1.6-0.5 3.2-0.3 1.6-0.7 3.1 1.5-1.1 3.1-2.5 0.4-0.3 0.7-0.6 0.4-0.4 0.8-0.7 0.3-0.4 0.6-0.8 0.4-0.4 0.7-0.8 0.4-0.6 0.8-1.2 0.5-0.6 0.8-1.3 0.4-0.6 0.8-1.3 0.3-0.7 0.6-1.3 0.5-1.1 0.9-1.9 0.1-0.5 0.3-0.9 0.4-0.9 0.9-1.8 0.5-0.9 1-1.8 0.5-0.9 1.1-1.7 0.6-0.8 1.2-1.6 0.6-0.7 1.3-1.4 0.6-0.7 1.3-1.4 0.7-0.6 1.4-1.2 0.8-0.6 1.6-1.1 0.6-0.4 1.3-0.8 0.7-0.3 1.4-0.6 0.7-0.2 1.5-0.4 0.7-0.1 1.5-0.1 0.7-0.1 1.3 0 0.7 0.2 1.3 0.4 0.6 0.3 1.1 0.7 0.5 0.4 0.9 0.9 0.4 0.6 0.7 1.2 0.3 0.7 0.5 1.3 0.2 0.7 0.3 1.4 0 0.6 0 1.3 0 1-0.1 2-0.1 1-0.3 2-0.3 1-0.6 1.9-0.3 1-0.7 1.9-0.3 0.6-0.6 1.2-0.4 0.7-0.7 1.3-0.4 0.6-0.7 1.2-0.4 0.6-0.8 1.2-0.5 0.6-0.9 1.3-0.5 0.6-1 1.2-0.6 0.6-1.1 1.2-0.6 0.6-1.1 1.2 0.2 0.5 0.7 0.9 0.4 0.4 0.9 0.7 0.5 0.3 1.1 0.4 0.5 0.2 1.1 0.1 0.6 0 1.1-0.1 0.5-0.1 1-0.3 0.5-0.3 0.9-0.6 0.4-0.3 0.8-0.6 0.5-0.5 0.9-0.9 0.4-0.5 0.8-1 0.4-0.5 0.8-1 0.4-0.6 0.7-1.1 0.4-0.6 0.7-1.2 0.4-0.6 0.7-1.2 0.3-0.5 0.7-1.1 0.3-0.7 0.6-1.3 1.1-2.3 1.9-3.8 0-0.1 0.1-0.2 0.1-0.1 0.2-0.2 0.1-0.1 0.2-0.1 0.2 0 0.3 0 0.1 0 0.1 0 0.1 0 0.2 0 0 0.1 0.1 0.1 0 0.1 0.1 0.2 0 0.1 0 0.2 0.1 0.1 0 0.2 0 0.1 0 0.2 0 0.1-0.1 0.2-0.5 1.3-1.6 3.7-0.4 0.6-0.7 1.3-0.3 0.6-0.7 1.2-0.3 0.7-0.7 1.3-0.4 0.6-0.7 1.2-0.4 0.6-0.9 1.2-0.4 0.6-0.9 1.2-0.4 0.5-1 1-0.5 0.5-1 1-0.5 0.5-1.1 0.8-0.5 0.3-1.2 0.6-0.6 0.2-1.2 0.3-0.7 0.1-1.3 0.1-0.4 0-0.8 0-0.4 0-0.8-0.1-0.4-0.1-0.8-0.2-0.4-0.1-0.7-0.3-0.3-0.1-0.6-0.3-0.3-0.1-0.6-0.3-0.3-0.2-0.5-0.4-0.3-0.3-0.5-0.5-0.4 0.3-0.8 0.6-0.4 0.3-0.8 0.5-0.5 0.3-0.9 0.5-0.5 0.2-0.9 0.5-0.4 0.1-0.9 0.3-0.4 0.1-0.8 0.2-0.5 0.1-0.9 0.1-0.5 0.1-0.9 0.1-0.7 0-1.3-0.1-0.7-0.1-1.3-0.4-0.6-0.2-1.1-0.7-0.5-0.4-0.9-0.9-0.4-0.6-0.7-1.2-0.3-0.6-0.5-1.3-0.1-0.6-0.2-1.3-0.1-0.7-0.1-1.4 0-0.7 0.1-1.4-0.3 0.5-0.5 0.9-0.4 0.7-0.8 1.4-0.5 0.7-0.9 1.3-0.5 0.7-1 1.3-0.5 0.6-1.1 1.2-0.5 0.6-1.1 1.1-0.6 0.5-1.3 0.9-0.6 0.5-1.3 0.9-0.7 0.3-1.4 0.7-0.4 1.1-0.8 2.1-0.4 1.1-0.9 2.1-0.5 1.1-1.1 2.1-0.5 1-1.2 2-0.6 1.1-1.3 2.2-0.8 1-1.5 2.1-0.8 1-1.6 2-0.9 1-1.7 1.9-0.9 1-1.8 1.8-0.9 0.9-1.9 1.7-0.9 0.8-2 1.5-1 0.7-2.1 1.3-1 0.6-2 1.1-1.1 0.4-2.2 0.7-1.1 0.3-2.2 0.5-1.2 0.2-2.3 0.2-7.8 0-7.8-6.5 0-0.7 0.1-1.4 0.1-0.8 0.4-1.5 0.3-0.7 0.7-1.3 0.4-0.6 0.9-1.2 0.6-0.6 1.2-1.2 0.6-0.5 1.2-1.1 0.6-0.5 1.3-0.9 0.7-0.5 1.4-0.9 1-0.6 2-1.1 0.9-0.6 1.9-1.1 1-0.5 2-0.9 1.1-0.5 2.1-0.9 3.9-1.4 7.4-2.6 3.5-1.1 6.6-2.4 0.4-1.1 0.7-2.2 0.3-1.2 0.6-2.3 0.2-1.2 0.4-2.3 0.2-1.2 0.3-2.3 0.2-2.5 0.2-4.3 0.1-0.3 0-0.6 0-0.4 0-0.7 0-0.3-0.1-0.6 0-0.3-0.1-0.6-0.9 1.7-2.4 4.2-0.4 0.6-0.8 1.3-0.4 0.6-0.8 1.2-0.4 0.6-0.9 1.2-0.4 0.6-0.9 1.1-0.4 0.6-0.9 1.1-0.5 0.5-1 1-0.5 0.5-1 1-0.6 0.4-1.2 0.8-0.4 0.4-1 0.7-0.5 0.3-1.1 0.5-0.5 0.2-1.1 0.3-0.6 0.1-1.2 0.1-0.2 0-0.4 0-0.2 0-0.4 0-0.2-0.1-0.4-0.1-0.2-0.1-0.4-0.1-0.5-0.2-1-0.5-0.5-0.3-0.9-0.7-0.4-0.3-0.8-0.7-0.4-0.5-0.6-0.9-0.3-0.5-0.5-1-0.2-0.5-0.3-1-0.2-0.5-0.2-1.1-0.1-0.5-0.1-1.1 0-0.1 0-0.3-0.2 0.4-0.4 0.7-0.4 0.6-0.8 1.2-0.4 0.6-0.9 1.2-0.5 0.5-1 1-0.5 0.5-1.1 1-0.5 0.5-1 0.8-0.6 0.3-1.2 0.6-0.6 0.2-1.3 0.3-0.6 0.1-1.2 0.1-0.5 0-0.9 0-0.4 0-0.7-0.1-0.4-0.1-0.8-0.2-0.4-0.1-0.8-0.3-0.3-0.1-0.6-0.3-0.3-0.1-0.5-0.3-0.3-0.2-0.5-0.4-0.3-0.3-0.5-0.5-0.4 0.3-0.8 0.6-0.5 0.3-0.9 0.5-0.4 0.3-0.9 0.5-0.4 0.2-0.9 0.5-0.4 0.1-0.8 0.3-0.4 0.1-0.9 0.2-0.4 0.1-0.8 0.1-0.5 0.1-0.9 0.1zm1.2-1.8q0.7-0.1 1.3-0.2 0.7-0.2 1.3-0.5 0.6-0.2 1.1-0.6 0.6-0.4 1.1-0.9-0.2-0.2-0.3-0.4-0.2-0.3-0.3-0.6-0.1-0.2-0.2-0.5-0.1-0.2-0.2-0.5-0.1-0.3-0.2-0.5 0-0.2-0.1-0.5 0-0.2 0-0.5 0-0.2 0-0.5-0.1-0.3 0-0.7 0-0.3 0.1-0.6 0.1-0.3 0.2-0.7 0.2-0.3 0.4-0.5 0.1-0.3 0.4-0.5 0.2-0.2 0.5-0.4 0.3-0.1 0.6-0.2 0.3 0 0.6 0 0.3 0 0.5 0 0.3 0.1 0.5 0.2 0.2 0.1 0.4 0.2 0.2 0.2 0.4 0.4 0.2 0.1 0.3 0.3 0.1 0.3 0.2 0.5 0.1 0.2 0.2 0.4 0 0.3 0 0.5 0 0.1 0 0.1 0 0.1 0 0.2 0 0 0 0.1 0 0 0 0.1 0 0-0.1 0.1 0 0.1 0 0.1 0 0.1 0 0.1 0 0.1-0.1 0.1 0.4-0.5 0.8-1 0.3-0.6 0.7-1.1 0.3-0.6 0.6-1.2 0.3-0.5 0.6-1.1 2.7-5.9 2.7-9.6 0-0.4 0-0.8-0.1-0.4-0.1-0.8-0.1-0.4-0.3-0.7-0.1-0.4-0.3-0.7-0.2-0.3-0.5-0.5-0.2-0.2-0.5-0.3-0.3-0.2-0.6-0.2-0.3-0.1-0.7-0.1-0.5 0.1-1 0.2-0.5 0.1-1 0.3-0.4 0.2-0.9 0.4-0.4 0.3-0.8 0.6-0.6 0.4-1.1 0.9-0.5 0.4-1 0.9-0.5 0.5-0.9 1.1-0.5 0.5-0.9 1.1-0.5 0.6-0.9 1.3-0.5 0.6-0.9 1.3-0.4 0.7-0.7 1.4-0.4 0.7-0.7 1.5-0.4 0.6-0.6 1.3-0.3 0.7-0.6 1.3-0.3 0.7-0.5 1.4-0.2 0.7-0.4 1.4-0.2 0.5-0.4 1.1-0.1 0.5-0.2 1.1-0.1 0.5-0.2 1.1 0 0.6 0 1.2 0 0.3 0 0.6 0 0.4 0.1 0.7 0.1 0.4 0.2 0.7 0.2 0.3 0.3 0.6 0.2 0.2 0.4 0.4 0.3 0.2 0.5 0.4 0.3 0.1 0.6 0.1 0.3 0.1 0.6 0.1zm14.8 26.4q0.5 0 1 0 0.5-0.1 1-0.2 0.5-0.1 0.9-0.2 0.5-0.2 1-0.4 0.4-0.2 0.9-0.4 0.5-0.2 1-0.4 0.5-0.2 1-0.5 0.4-0.2 0.9-0.5 0.3-0.2 0.7-0.4 0.4-0.3 0.7-0.5 0.4-0.2 0.7-0.4 0.3-0.3 0.7-0.5 0.5-0.4 1-0.9 0.5-0.4 1-0.9 0.5-0.5 0.9-0.9 0.5-0.5 1-1 0.4-0.5 0.9-1.1 0.4-0.5 0.8-1 0.5-0.6 0.9-1.1 0.4-0.6 0.8-1.1 1.4-2 2.7-4.2 0.3-0.5 0.6-1 0.3-0.6 0.6-1.1 0.2-0.5 0.5-1.1 0.2-0.5 0.5-1.1-0.7 0.2-1.6 0.6-1 0.3-1.4 0.5-2.7 0.9-6 2.1-3.2 1.2-6.4 2.6-0.8 0.3-1.5 0.7-0.8 0.4-1.5 0.8-0.7 0.4-1.5 0.8-0.7 0.4-1.4 0.9-0.6 0.4-1.1 0.8-0.5 0.5-1 1-0.5 0.5-0.9 1.1-0.5 0.6-0.8 1.2-0.3 0.5-0.6 1-0.3 0.6-0.5 1.1-0.2 0.6-0.3 1.2-0.1 0.6-0.1 1.1 0 0.4 0 0.7 0.1 0.3 0.2 0.6 0.1 0.3 0.3 0.6 0.2 0.3 0.4 0.5 0.3 0.3 0.7 0.5 0.3 0.2 0.7 0.3 0.4 0.2 0.8 0.2 0.4 0.1 0.8 0zm45.2-26.4q0.7-0.1 1.4-0.2 0.6-0.2 1.2-0.5 0.6-0.2 1.2-0.6 0.5-0.4 1-0.9-0.1-0.2-0.3-0.4-0.1-0.3-0.3-0.6-0.1-0.2-0.2-0.5-0.1-0.2-0.2-0.5-0.1-0.3-0.1-0.5-0.1-0.2-0.1-0.5-0.1-0.2-0.1-0.5 0-0.2 0-0.5 0-0.3 0-0.7 0.1-0.3 0.2-0.6 0-0.3 0.2-0.7 0.1-0.3 0.3-0.5 0.2-0.3 0.4-0.5 0.3-0.2 0.5-0.4 0.3-0.1 0.6-0.2 0.4 0 0.7 0 0.2 0 0.5 0 0.2 0.1 0.5 0.2 0.2 0.1 0.4 0.2 0.2 0.2 0.3 0.4 0.2 0.1 0.3 0.3 0.2 0.3 0.3 0.5 0.1 0.2 0.1 0.4 0.1 0.3 0 0.5 0.1 0.1 0 0.1 0 0.1 0 0.2 0 0 0 0.1 0 0 0 0.1 0 0 0 0.1 0 0.1 0 0.1-0.1 0.1-0.1 0.1 0 0.1 0 0.1 0.4-0.5 0.7-1 0.4-0.6 0.7-1.1 0.3-0.6 0.6-1.2 0.3-0.5 0.6-1.1 2.7-5.9 2.7-9.6 0.1-0.4 0-0.8 0-0.4-0.1-0.8-0.1-0.4-0.3-0.7-0.1-0.4-0.3-0.7-0.2-0.3-0.4-0.5-0.3-0.2-0.6-0.3-0.3-0.2-0.6-0.2-0.3-0.1-0.6-0.1-0.5 0.1-1 0.2-0.5 0.1-1 0.3-0.5 0.2-0.9 0.4-0.5 0.3-0.9 0.6-0.5 0.4-1 0.9-0.6 0.4-1.1 0.9-0.4 0.5-0.9 1.1-0.4 0.5-0.8 1.1-0.5 0.6-1 1.3-0.4 0.6-0.8 1.3-0.4 0.7-0.8 1.4-0.4 0.7-0.7 1.5-0.3 0.6-0.6 1.3-0.3 0.7-0.5 1.3-0.3 0.7-0.5 1.4-0.3 0.7-0.5 1.4-0.2 0.5-0.3 1.1-0.2 0.5-0.3 1.1 0 0.5-0.1 1.1-0.1 0.6-0.1 1.2 0 0.3 0 0.6 0.1 0.4 0.2 0.7 0 0.4 0.2 0.7 0.1 0.3 0.3 0.6 0.2 0.2 0.4 0.4 0.2 0.2 0.5 0.4 0.2 0.1 0.5 0.1 0.3 0.1 0.6 0.1z"/>
		<path id="Shape 1" class="s1" d="m-194-18"/>
		<path id="Path_304" fill-rule="evenodd" class="s0" d="m10.4 36.1v-13.7h-5.6v13.7h-4.8v-31.5h4.8v13.3h5.6v-13.3h4.8v31.5zm20.2 0l-1-7.2h-5.2l-1.1 7.2h-4.7l5.4-31.5h6.1l5.4 31.5zm-5.7-11.5h4l-1.9-13.3h-0.1zm24.7 11.5l-6.2-20.8h-0.1v20.8h-4.5v-31.4h5.3l5.6 18.7h0.1v-18.7h4.5v31.4zm16.6-31.4c5.1 0 7.9 2.7 7.9 7.9v15.6c0 5.1-2.8 7.9-7.9 7.9h-6.8v-31.4zm-2.1 27h1.9c2.3 0 3.3-1.2 3.3-3.9v-14.9c0-2.6-1-3.8-3.3-3.8h-1.9z"/>
	</g>
</svg>